<svg width="1424" height="801" viewBox="0 0 1424 801" fill="none" xmlns="http://www.w3.org/2000/svg">
<mask id="path-1-inside-1_119_622" fill="white">
<path d="M1399 0C1412.81 8.24649e-06 1424 11.1929 1424 25V776C1424 789.807 1412.81 801 1399 801H25C11.1929 801 2.72821e-07 789.807 0 776V25C0 11.1929 11.1929 0 25 0H1399ZM29 9C17.9543 9 9.00001 17.9543 9 29V772C9 783.046 17.9543 792 29 792H495C506.046 792 515 783.046 515 772V29C515 17.9543 506.046 9 495 9H29Z"/>
</mask>
<path d="M1399 0C1412.81 8.24649e-06 1424 11.1929 1424 25V776C1424 789.807 1412.81 801 1399 801H25C11.1929 801 2.72821e-07 789.807 0 776V25C0 11.1929 11.1929 0 25 0H1399ZM29 9C17.9543 9 9.00001 17.9543 9 29V772C9 783.046 17.9543 792 29 792H495C506.046 792 515 783.046 515 772V29C515 17.9543 506.046 9 495 9H29Z" fill="#0B0B0F"/>
<path d="M1399 0V-1V-1V0ZM1424 25H1425V25H1424ZM25 801V802V802V801ZM0 776H-1V776H0ZM9 29H8V29H9ZM1399 0V1C1412.25 1.00001 1423 11.7452 1423 25H1424H1425C1425 10.6406 1413.36 -0.999991 1399 -1V0ZM1424 25H1423V776H1424H1425V25H1424ZM1424 776H1423C1423 789.255 1412.25 800 1399 800V801V802C1413.36 802 1425 790.359 1425 776H1424ZM1399 801V800H25V801V802H1399V801ZM25 801V800C11.7452 800 1 789.255 1 776H0H-1C-1 790.359 10.6406 802 25 802V801ZM0 776H1V25H0H-1V776H0ZM0 25H1C1 11.7452 11.7452 1 25 1V0V-1C10.6406 -1 -1 10.6406 -1 25H0ZM25 0V1H1399V0V-1H25V0ZM29 9V8C17.402 8 8.00001 17.402 8 29H9H10C10 18.5066 18.5066 10 29 10V9ZM9 29H8V772H9H10V29H9ZM9 772H8C8 783.598 17.402 793 29 793V792V791C18.5066 791 10 782.493 10 772H9ZM29 792V793H495V792V791H29V792ZM495 792V793C506.598 793 516 783.598 516 772H515H514C514 782.493 505.493 791 495 791V792ZM515 772H516V29H515H514V772H515ZM515 29H516C516 17.402 506.598 8 495 8V9V10C505.493 10 514 18.5066 514 29H515ZM495 9V8H29V9V10H495V9Z" fill="#32333A" mask="url(#path-1-inside-1_119_622)"/>
</svg>
