<svg width="485" height="260" viewBox="0 0 485 260" fill="none" xmlns="http://www.w3.org/2000/svg">
<g filter="url(#filter0_nn_58_21)">
<rect width="485" height="260" fill="url(#paint0_linear_58_21)"/>
<path d="M272.82 173V167.24H278.46V136.76H272.82V131H294.12C296.64 131 298.84 131.44 300.72 132.32C302.6 133.16 304.06 134.38 305.1 135.98C306.18 137.54 306.72 139.4 306.72 141.56V142.16C306.72 144.08 306.36 145.66 305.64 146.9C304.92 148.14 304.04 149.1 303 149.78C302 150.46 301.04 150.94 300.12 151.22V152.18C301.04 152.42 302.02 152.9 303.06 153.62C304.14 154.3 305.04 155.26 305.76 156.5C306.52 157.74 306.9 159.36 306.9 161.36V161.96C306.9 164.28 306.36 166.26 305.28 167.9C304.2 169.54 302.7 170.8 300.78 171.68C298.9 172.56 296.72 173 294.24 173H272.82ZM285 167.12H293.46C295.62 167.12 297.32 166.6 298.56 165.56C299.8 164.52 300.42 163.08 300.42 161.24V160.7C300.42 158.86 299.8 157.42 298.56 156.38C297.36 155.34 295.66 154.82 293.46 154.82H285V167.12ZM285 148.88H293.46C295.5 148.88 297.14 148.38 298.38 147.38C299.62 146.34 300.24 144.94 300.24 143.18V142.58C300.24 140.82 299.62 139.44 298.38 138.44C297.18 137.4 295.54 136.88 293.46 136.88H285V148.88ZM328.205 173.84C325.245 173.84 322.605 173.24 320.285 172.04C318.005 170.8 316.205 169.04 314.885 166.76C313.565 164.48 312.905 161.78 312.905 158.66V157.76C312.905 154.64 313.565 151.96 314.885 149.72C316.205 147.44 318.005 145.68 320.285 144.44C322.605 143.2 325.245 142.58 328.205 142.58C331.165 142.58 333.805 143.2 336.125 144.44C338.445 145.68 340.265 147.44 341.585 149.72C342.905 151.96 343.565 154.64 343.565 157.76V158.66C343.565 161.78 342.905 164.48 341.585 166.76C340.265 169.04 338.445 170.8 336.125 172.04C333.805 173.24 331.165 173.84 328.205 173.84ZM328.205 168.32C330.925 168.32 333.125 167.46 334.805 165.74C336.525 163.98 337.385 161.56 337.385 158.48V157.94C337.385 154.86 336.545 152.46 334.865 150.74C333.185 148.98 330.965 148.1 328.205 148.1C325.525 148.1 323.325 148.98 321.605 150.74C319.925 152.46 319.085 154.86 319.085 157.94V158.48C319.085 161.56 319.925 163.98 321.605 165.74C323.325 167.46 325.525 168.32 328.205 168.32ZM351.259 173V131H357.439V154.94H358.399L370.039 143.42H378.259L363.319 157.76L378.739 173H370.579L358.399 160.7H357.439V173H351.259Z" fill="#DFDFDF"/>
<path d="M110.38 173V131H128.02C130.62 131 132.9 131.46 134.86 132.38C136.86 133.26 138.4 134.54 139.48 136.22C140.6 137.9 141.16 139.9 141.16 142.22V142.88C141.16 145.52 140.52 147.64 139.24 149.24C138 150.8 136.48 151.9 134.68 152.54V153.5C136.2 153.58 137.42 154.1 138.34 155.06C139.26 155.98 139.72 157.32 139.72 159.08V173H133.18V159.98C133.18 158.9 132.9 158.04 132.34 157.4C131.78 156.76 130.88 156.44 129.64 156.44H116.86V173H110.38ZM116.86 150.56H127.3C129.62 150.56 131.42 149.98 132.7 148.82C133.98 147.62 134.62 146 134.62 143.96V143.48C134.62 141.44 133.98 139.84 132.7 138.68C131.46 137.48 129.66 136.88 127.3 136.88H116.86V150.56ZM162.33 173.84C159.37 173.84 156.73 173.24 154.41 172.04C152.13 170.8 150.33 169.04 149.01 166.76C147.69 164.48 147.03 161.78 147.03 158.66V157.76C147.03 154.64 147.69 151.96 149.01 149.72C150.33 147.44 152.13 145.68 154.41 144.44C156.73 143.2 159.37 142.58 162.33 142.58C165.29 142.58 167.93 143.2 170.25 144.44C172.57 145.68 174.39 147.44 175.71 149.72C177.03 151.96 177.69 154.64 177.69 157.76V158.66C177.69 161.78 177.03 164.48 175.71 166.76C174.39 169.04 172.57 170.8 170.25 172.04C167.93 173.24 165.29 173.84 162.33 173.84ZM162.33 168.32C165.05 168.32 167.25 167.46 168.93 165.74C170.65 163.98 171.51 161.56 171.51 158.48V157.94C171.51 154.86 170.67 152.46 168.99 150.74C167.31 148.98 165.09 148.1 162.33 148.1C159.65 148.1 157.45 148.98 155.73 150.74C154.05 152.46 153.21 154.86 153.21 157.94V158.48C153.21 161.56 154.05 163.98 155.73 165.74C157.45 167.46 159.65 168.32 162.33 168.32ZM199.244 173.84C196.284 173.84 193.644 173.24 191.324 172.04C189.044 170.8 187.244 169.04 185.924 166.76C184.604 164.48 183.944 161.78 183.944 158.66V157.76C183.944 154.64 184.604 151.96 185.924 149.72C187.244 147.44 189.044 145.68 191.324 144.44C193.644 143.2 196.284 142.58 199.244 142.58C202.204 142.58 204.844 143.2 207.164 144.44C209.484 145.68 211.304 147.44 212.624 149.72C213.944 151.96 214.604 154.64 214.604 157.76V158.66C214.604 161.78 213.944 164.48 212.624 166.76C211.304 169.04 209.484 170.8 207.164 172.04C204.844 173.24 202.204 173.84 199.244 173.84ZM199.244 168.32C201.964 168.32 204.164 167.46 205.844 165.74C207.564 163.98 208.424 161.56 208.424 158.48V157.94C208.424 154.86 207.584 152.46 205.904 150.74C204.224 148.98 202.004 148.1 199.244 148.1C196.564 148.1 194.364 148.98 192.644 150.74C190.964 152.46 190.124 154.86 190.124 157.94V158.48C190.124 161.56 190.964 163.98 192.644 165.74C194.364 167.46 196.564 168.32 199.244 168.32ZM222.298 173V143.42H228.358V146.9H229.318C229.878 145.86 230.778 144.94 232.018 144.14C233.258 143.34 234.938 142.94 237.058 142.94C239.258 142.94 241.018 143.4 242.338 144.32C243.698 145.2 244.718 146.34 245.398 147.74H246.358C247.038 146.38 248.018 145.24 249.298 144.32C250.618 143.4 252.478 142.94 254.878 142.94C256.798 142.94 258.498 143.34 259.978 144.14C261.458 144.9 262.638 146.06 263.518 147.62C264.398 149.14 264.838 151.04 264.838 153.32V173H258.658V153.8C258.658 152 258.158 150.62 257.158 149.66C256.198 148.66 254.818 148.16 253.018 148.16C251.098 148.16 249.558 148.78 248.398 150.02C247.238 151.26 246.658 153.04 246.658 155.36V173H240.478V153.8C240.478 152 239.978 150.62 238.978 149.66C238.018 148.66 236.638 148.16 234.838 148.16C232.918 148.16 231.378 148.78 230.218 150.02C229.058 151.26 228.478 153.04 228.478 155.36V173H222.298Z" fill="#DFDFDF"/>
<path d="M244.88 125.805L241.427 122.471L244.692 119.09L226.421 101.446L223.156 104.827L219.703 101.492L232.033 88.724C233.492 87.2134 235.029 86.1493 236.645 85.5318C238.237 84.8911 239.814 84.7221 241.375 85.0249C242.935 85.2805 244.363 86.0335 245.657 87.2839L246.017 87.6313C247.168 88.7427 247.907 89.8731 248.233 91.0226C248.56 92.172 248.626 93.2552 248.432 94.2723C248.26 95.2654 247.992 96.1187 247.628 96.8323L248.203 97.388C248.879 96.9755 249.735 96.6659 250.768 96.4592C251.801 96.2055 252.897 96.2217 254.058 96.5079C255.241 96.7701 256.432 97.4801 257.631 98.6379L257.99 98.9852C259.381 100.328 260.256 101.798 260.613 103.395C260.971 104.992 260.858 106.62 260.274 108.281C259.714 109.917 258.715 111.478 257.28 112.965L244.88 125.805ZM248.406 115.1L253.303 110.029C254.554 108.734 255.226 107.414 255.321 106.069C255.415 104.723 254.911 103.518 253.808 102.453L253.484 102.14C252.381 101.075 251.159 100.613 249.818 100.754C248.5 100.872 247.204 101.59 245.93 102.909L241.033 107.98L248.406 115.1ZM237.472 104.541L242.369 99.4701C243.55 98.2472 244.2 96.9746 244.318 95.6524C244.413 94.3071 243.932 93.125 242.877 92.1062L242.518 91.7588C241.463 90.74 240.277 90.3128 238.959 90.4772C237.641 90.5945 236.38 91.2766 235.176 92.5235L230.279 97.5948L237.472 104.541Z" fill="url(#paint1_linear_58_21)"/>
<path d="M227.2 84C229.84 84 232.14 84.46 234.1 85.3799C234.176 85.4159 234.252 85.4541 234.327 85.4912C233.857 85.8803 233.393 86.3061 232.933 86.7666L228.289 91.4092C227.705 91.2702 227.062 91.2002 226.36 91.2002H216.88V102.96H218.579L222.58 106.961L226.483 103.058L239.08 115.654V126H231.16V113.4C231.16 112.44 230.9 111.66 230.38 111.06C229.9 110.46 229.08 110.16 227.92 110.16H216.88V126H208.96V84H227.2ZM239.512 90.9375C240.024 92.2228 240.28 93.6501 240.28 95.2197V95.9404C240.28 98.46 239.68 100.5 238.48 102.06C238.218 102.401 237.939 102.722 237.649 103.023L232.351 97.7246C232.354 97.6578 232.355 97.5904 232.356 97.5225L237.43 92.4512C238.101 91.7797 238.795 91.2746 239.512 90.9375Z" fill="url(#paint2_linear_58_21)"/>
</g>
<defs>
<filter id="filter0_nn_58_21" x="0" y="0" width="485" height="260" filterUnits="userSpaceOnUse" color-interpolation-filters="sRGB">
<feFlood flood-opacity="0" result="BackgroundImageFix"/>
<feBlend mode="normal" in="SourceGraphic" in2="BackgroundImageFix" result="shape"/>
<feTurbulence type="fractalNoise" baseFrequency="5 5" stitchTiles="stitch" numOctaves="3" result="noise" seed="5401" />
<feColorMatrix in="noise" type="luminanceToAlpha" result="alphaNoise" />
<feComponentTransfer in="alphaNoise" result="coloredNoise1">
<feFuncA type="discrete" tableValues="1 1 1 1 1 1 1 1 1 1 1 1 1 1 1 1 1 1 1 1 1 1 1 1 1 1 1 1 1 1 1 1 1 1 1 1 1 1 1 1 1 1 1 1 1 1 1 1 1 1 1 0 0 0 0 0 0 0 0 0 0 0 0 0 0 0 0 0 0 0 0 0 0 0 0 0 0 0 0 0 0 0 0 0 0 0 0 0 0 0 0 0 0 0 0 0 0 0 0 0 "/>
</feComponentTransfer>
<feComposite operator="in" in2="shape" in="coloredNoise1" result="noise1Clipped" />
<feFlood flood-color="rgba(0, 0, 0, 0.25)" result="color1Flood" />
<feComposite operator="in" in2="noise1Clipped" in="color1Flood" result="color1" />
<feMerge result="effect1_noise_58_21">
<feMergeNode in="shape" />
<feMergeNode in="color1" />
</feMerge>
<feTurbulence type="fractalNoise" baseFrequency="5 5" stitchTiles="stitch" numOctaves="3" result="noise" seed="6796" />
<feColorMatrix in="noise" type="luminanceToAlpha" result="alphaNoise" />
<feComponentTransfer in="alphaNoise" result="coloredNoise1">
<feFuncA type="discrete" tableValues="1 1 1 1 1 1 1 1 1 1 1 1 1 1 1 1 1 1 1 1 1 1 1 1 1 1 1 1 1 1 1 1 1 1 1 1 1 1 1 1 1 1 1 1 1 1 1 1 1 1 1 0 0 0 0 0 0 0 0 0 0 0 0 0 0 0 0 0 0 0 0 0 0 0 0 0 0 0 0 0 0 0 0 0 0 0 0 0 0 0 0 0 0 0 0 0 0 0 0 0 "/>
</feComponentTransfer>
<feComposite operator="in" in2="effect1_noise_58_21" in="coloredNoise1" result="noise1Clipped" />
<feFlood flood-color="rgba(0, 0, 0, 0.25)" result="color1Flood" />
<feComposite operator="in" in2="noise1Clipped" in="color1Flood" result="color1" />
<feMerge result="effect2_noise_58_21">
<feMergeNode in="effect1_noise_58_21" />
<feMergeNode in="color1" />
</feMerge>
</filter>
<linearGradient id="paint0_linear_58_21" x1="242.5" y1="0" x2="242.5" y2="260" gradientUnits="userSpaceOnUse">
<stop stop-color="#0CDFE6"/>
<stop offset="1" stop-color="#D76629"/>
</linearGradient>
<linearGradient id="paint1_linear_58_21" x1="246.5" y1="124.5" x2="241.5" y2="85" gradientUnits="userSpaceOnUse">
<stop stop-color="#BDBDBD"/>
<stop offset="1" stop-color="#0CDFE6" stop-opacity="0.2"/>
</linearGradient>
<linearGradient id="paint2_linear_58_21" x1="224" y1="120" x2="224" y2="84" gradientUnits="userSpaceOnUse">
<stop stop-color="#CACACA"/>
<stop offset="1" stop-color="#0CDFE6" stop-opacity="0.2"/>
</linearGradient>
</defs>
</svg>
